<?xml version="1.0" encoding="UTF-8"?>
<svg version="1.1" xmlns="http://www.w3.org/2000/svg" width="128" height="128">
<path d="M0 0 C0.66 0 1.32 0 2 0 C2.41572266 1.06541016 2.41572266 1.06541016 2.83984375 2.15234375 C3.20207031 3.07144531 3.56429687 3.99054687 3.9375 4.9375 C4.29714844 5.85402344 4.65679687 6.77054688 5.02734375 7.71484375 C5.7996218 9.92418533 5.7996218 9.92418533 7 11 C7.66 10.34 8.32 9.68 9 9 C11.71391278 13.77357872 13.56561146 17.34388537 13 23 C14.0725 22.319375 15.145 21.63875 16.25 20.9375 C18.58597057 19.45505714 19.46315231 18.90896114 22.234375 19.37890625 C22.81703125 19.58386719 23.3996875 19.78882812 24 20 C22.36959185 26.01077136 20.72852643 32.01663928 19 38 C19.78375 38.309375 20.5675 38.61875 21.375 38.9375 C24 40 24 40 26 41 C25.45106913 45.17632537 24.08043593 47.44016078 21.625 50.8125 C16.83789022 58.70001897 16.58779283 67.04443817 15.66796875 76.0625 C14.22238557 89.98260267 10.50756788 104.65657616 2 116 C-1 115 -1 115 -2.68359375 112.33203125 C-9.05006782 99.55654543 -13.3867203 86.14343226 -14.28125 71.80859375 C-14.98010119 61.85102958 -16.80631863 55.11138358 -22.3203125 46.72265625 C-24 44 -24 44 -24 41 C-19.77777778 38 -19.77777778 38 -17 38 C-17.3609375 36.86820313 -17.721875 35.73640625 -18.09375 34.5703125 C-18.56264982 33.08858907 -19.03139164 31.60681563 -19.5 30.125 C-19.73847656 29.37863281 -19.97695313 28.63226563 -20.22265625 27.86328125 C-22 22.2265625 -22 22.2265625 -22 20 C-20.375 19.25 -20.375 19.25 -18 19 C-14.75 20.9375 -14.75 20.9375 -12 23 C-11.731875 21.80375 -11.46375 20.6075 -11.1875 19.375 C-10.25912994 15.62144624 -8.86951157 12.39911194 -7 9 C-6.34 9.66 -5.68 10.32 -5 11 C-3.35 7.37 -1.7 3.74 0 0 Z " fill="#D7DCFE" transform="translate(63,6)"/>
<path d="M0 0 C1.9296875 1.09375 1.9296875 1.09375 4.8046875 3.09375 C2.07911389 12.13879515 -0.80323813 20.21872729 -6.1953125 28.09375 C-9.74010191 26.91215353 -10.17341479 25.75497829 -11.79663086 22.53369141 C-12.0931958 21.91413574 -12.38976074 21.29458008 -12.6953125 20.65625 C-13.00283447 20.02895996 -13.31035645 19.40166992 -13.62719727 18.75537109 C-16.05099946 13.68548253 -17.87235462 8.56197592 -19.1953125 3.09375 C-13.19996307 -1.07692787 -7.07195188 -2.91938227 0 0 Z " fill="#F60D0E" transform="translate(71.1953125,93.90625)"/>
<path d="M0 0 C0.66 0 1.32 0 2 0 C2.27714844 0.71027344 2.55429688 1.42054688 2.83984375 2.15234375 C3.20207031 3.07144531 3.56429687 3.99054687 3.9375 4.9375 C4.29714844 5.85402344 4.65679687 6.77054688 5.02734375 7.71484375 C5.7996218 9.92418533 5.7996218 9.92418533 7 11 C7.66 10.34 8.32 9.68 9 9 C12.04157942 14.22771463 13.50610724 17.92671312 13 24 C12.34 24.33 11.68 24.66 11 25 C10.13375 24.690625 9.2675 24.38125 8.375 24.0625 C1.9345747 22.0349587 -4.43653686 23.06236241 -11 24 C-11.50610724 17.92671312 -10.04157942 14.22771463 -7 9 C-6.34 9.66 -5.68 10.32 -5 11 C-3.35 7.37 -1.7 3.74 0 0 Z " fill="#F80702" transform="translate(63,6)"/>
<path d="M0 0 C-0.33 3.96 -0.66 7.92 -1 12 C-6.94 12 -12.88 12 -19 12 C-19.22786458 9.4609375 -19.45572917 6.921875 -19.68359375 4.3828125 C-19.86989285 1.98889139 -19.86989285 1.98889139 -21 0 C-13.60379867 -2.46540044 -7.45965441 -2.98386177 0 0 Z " fill="#8E90BE" transform="translate(74,30)"/>
<path d="M0 0 C0.96808594 -0.00257812 1.93617187 -0.00515625 2.93359375 -0.0078125 C5.5625 0.125 5.5625 0.125 8.5625 1.125 C7.98426904 5.18725548 6.67132263 7.97262346 4.5 11.4375 C3.95214844 12.32050781 3.40429688 13.20351562 2.83984375 14.11328125 C2.41832031 14.77714844 1.99679688 15.44101563 1.5625 16.125 C-2.35755939 14.81831354 -2.71782042 13.33832305 -4.625 9.75 C-5.41970703 8.28433594 -5.41970703 8.28433594 -6.23046875 6.7890625 C-7.4375 4.125 -7.4375 4.125 -7.4375 1.125 C-4.84233479 -0.17258261 -2.89566973 -0.00769102 0 0 Z " fill="#FC5455" transform="translate(63.4375,105.875)"/>
<path d="M0 0 C1.29227929 3.87683788 0.44092034 5.51559014 -0.80078125 9.3828125 C-1.20103516 10.63191406 -1.60128906 11.88101563 -2.01367188 13.16796875 C-2.22693115 13.81685059 -2.44019043 14.46573242 -2.65991211 15.13427734 C-3.31114954 17.12088042 -3.94456445 19.11254941 -4.57617188 21.10546875 C-6.92290248 28.34402853 -6.92290248 28.34402853 -8 31 C-8.66 31.33 -9.32 31.66 -10 32 C-10.14518182 27.9170404 -10.23403347 23.83474359 -10.3125 19.75 C-10.35439453 18.59113281 -10.39628906 17.43226562 -10.43945312 16.23828125 C-10.56361501 7.64627855 -10.56361501 7.64627855 -7.65625 4.3125 C-6.34140625 3.6628125 -6.34140625 3.6628125 -5 3 C-4.071875 2.4225 -3.14375 1.845 -2.1875 1.25 C-1.1046875 0.63125 -1.1046875 0.63125 0 0 Z " fill="#B2B8F4" transform="translate(83,25)"/>
<path d="M0 0 C1.64689635 0.97737769 3.29248854 1.9569532 4.9375 2.9375 C5.85402344 3.48277344 6.77054688 4.02804688 7.71484375 4.58984375 C10 6 10 6 11 7 C11.46116563 14.35152271 10.7912699 21.69488327 10 29 C7.62384273 26.62384273 7.11229435 24.83901276 6.0546875 21.66015625 C5.70019531 20.59732422 5.34570312 19.53449219 4.98046875 18.43945312 C4.61566406 17.32505859 4.25085937 16.21066406 3.875 15.0625 C3.50246094 13.95197266 3.12992188 12.84144531 2.74609375 11.69726562 C0 3.39360119 0 3.39360119 0 0 Z " fill="#B0B5F3" transform="translate(44,25)"/>
<path d="M0 0 C2.64 1.32 5.28 2.64 8 4 C7.44593342 8.59702113 5.44322498 11.98107901 3 15.8125 C2.44699219 16.7087207 2.44699219 16.7087207 1.8828125 17.62304688 C0.9555317 19.10365034 -0.01827668 20.5549202 -1 22 C-1.33 22 -1.66 22 -2 22 C-2.05807043 18.89591193 -2.09361914 15.7919636 -2.125 12.6875 C-2.14175781 11.80642578 -2.15851563 10.92535156 -2.17578125 10.01757812 C-2.18222656 9.17001953 -2.18867187 8.32246094 -2.1953125 7.44921875 C-2.20578613 6.66893311 -2.21625977 5.88864746 -2.22705078 5.0847168 C-2 3 -2 3 0 0 Z " fill="#B3B9F5" transform="translate(81,43)"/>
<path d="M0 0 C1.98510058 1.63707833 2.91847304 2.50096147 3.34057617 5.0847168 C3.32486572 5.86500244 3.30915527 6.64528809 3.29296875 7.44921875 C3.28330078 8.29677734 3.27363281 9.14433594 3.26367188 10.01757812 C3.23853516 10.89865234 3.21339844 11.77972656 3.1875 12.6875 C3.17396484 13.58017578 3.16042969 14.47285156 3.14648438 15.39257812 C3.11114079 17.59566166 3.06180493 19.79752582 3 22 C-0.16326376 19.09117267 -2.21466613 16.21520301 -4.25 12.4375 C-4.77078125 11.48746094 -5.2915625 10.53742187 -5.828125 9.55859375 C-7 7 -7 7 -7 4 C-4.69 2.68 -2.38 1.36 0 0 Z " fill="#B3B9F5" transform="translate(46,43)"/>
<path d="M0 0 C0.99 0.33 1.98 0.66 3 1 C1.48771007 7.12935691 -0.25620981 12.81118412 -2.94921875 18.51953125 C-5.06906778 23.52363583 -6.48528007 28.78710746 -8 34 C-8.66 34 -9.32 34 -10 34 C-8.68886656 26.18354338 -6.44889075 18.86020171 -3.875 11.375 C-3.50246094 10.27542969 -3.12992187 9.17585938 -2.74609375 8.04296875 C-1.83623435 5.36005 -0.92078919 2.67918301 0 0 Z " fill="#E6E9FE" transform="translate(84,25)"/>
<path d="M0 0 C3 0.25 3 0.25 5 2.25 C5.3633156 5.08386167 5.3568671 6.65522151 3.875 9.125 C1.07848948 10.80290631 -0.93690532 9.99875648 -4 9.25 C-4.625 5.875 -4.625 5.875 -5 2.25 C-3 0.25 -3 0.25 0 0 Z " fill="#A0B7F4" transform="translate(64,58.75)"/>
<path d="M0 0 C2.07921786 3.11882678 3.01797236 5.75382714 4.1640625 9.3125 C4.56367187 10.55257812 4.96328125 11.79265625 5.375 13.0703125 C5.57996094 13.71516602 5.78492188 14.36001953 5.99609375 15.02441406 C6.62343524 16.9950846 7.26039131 18.96246033 7.8984375 20.9296875 C11 30.61703531 11 30.61703531 11 34 C10.34 34 9.68 34 9 34 C8.68546875 33.03320312 8.3709375 32.06640625 8.046875 31.0703125 C5.15233136 22.23600149 5.15233136 22.23600149 1.8125 13.5625 C0.10248906 9.42939664 -1.03009137 5.36458882 -2 1 C-1.34 0.67 -0.68 0.34 0 0 Z " fill="#E6E9FE" transform="translate(43,25)"/>
<path d="M0 0 C3 0.25 3 0.25 5 2.25 C5.25 4.75 5.25 4.75 5 7.25 C3 9.25 3 9.25 0 9.5 C-3 9.25 -3 9.25 -5 7.25 C-5.25 4.75 -5.25 4.75 -5 2.25 C-3 0.25 -3 0.25 0 0 Z " fill="#9EB6F3" transform="translate(64,72.75)"/>
<path d="M0 0 C0.66 0 1.32 0 2 0 C5.42857143 8.42857143 5.42857143 8.42857143 5 13 C2.36 13 -0.28 13 -3 13 C-2.52060632 8.28596212 -2.03165952 4.33420699 0 0 Z " fill="#FE940F" transform="translate(63,15)"/>
<path d="M0 0 C1.67542976 0.28604898 3.34385343 0.61781233 5 1 C5 2.65 5 4.3 5 6 C2.625 6.625 2.625 6.625 0 7 C-0.66 6.34 -1.32 5.68 -2 5 C-1.46428571 1.46428571 -1.46428571 1.46428571 0 0 Z " fill="#109DE6" transform="translate(62,47)"/>
<path d="M0 0 C1.67542976 0.28604898 3.34385343 0.61781233 5 1 C5 2.65 5 4.3 5 6 C3.34385343 6.38218767 1.67542976 6.71395102 0 7 C-1 6 -1 6 -1.125 3.5 C-1 1 -1 1 0 0 Z " fill="#0E9CE6" transform="translate(62,74)"/>
<path d="M0 0 C1.67542976 0.28604898 3.34385343 0.61781233 5 1 C5 2.65 5 4.3 5 6 C3.34385343 6.38218767 1.67542976 6.71395102 0 7 C-1 6 -1 6 -1.125 3.5 C-1 1 -1 1 0 0 Z " fill="#0F9DE6" transform="translate(62,60)"/>
<path d="M0 0 C2.7972908 2.06756277 3.02692273 3.14440371 3.6875 6.6875 C3.790625 7.780625 3.89375 8.87375 4 10 C1.69 9.34 -0.62 8.68 -3 8 C-2.34 7.67 -1.68 7.34 -1 7 C-0.59270772 4.67843403 -0.25561323 2.3431213 0 0 Z " fill="#F78319" transform="translate(71,21)"/>
<path d="M0 0 C2 2 2 2 2.125 5.125 C2.08375 6.07375 2.0425 7.0225 2 8 C0.68 8.33 -0.64 8.66 -2 9 C-2.25 3.375 -2.25 3.375 0 0 Z " fill="#FD8E13" transform="translate(56,21)"/>
</svg>
