{
  "accessors": [
    {
      "bufferView": 2,
      "componentType": 5126,
      "count": 88,
      "max": [
        -1.2305949926376343,
        7.6043620109558105,
        4.265326976776123
      ],
      "min": [
        -1.7924549579620361,
        7.110156059265137,
        3.9751789569854736
      ],
      "type": "VEC3"
    },
    {
      "bufferView": 2,
      "byteOffset": 1056,
      "componentType": 5126,
      "count": 88,
      "max": [
        0.9310957789421082,
        0.9956256151199341,
        0.9593314528465271
      ],
      "min": [
        -0.9212170243263245,
        -0.998567521572113,
        -0.9280228614807129
      ],
      "type": "VEC3"
    },
    {
      "bufferView": 1,
      "componentType": 5126,
      "count": 88,
      "max": [
        0.4936769902706146,
        0.5359609723091125
      ],
      "min": [
        0.4858430027961731,
        0.4788399934768677
      ],
      "type": "VEC2"
    },
    {
      "bufferView": 0,
      "componentType": 5125,
      "count": 306,
      "type": "SCALAR"
    },
    {
      "bufferView": 2,
      "byteOffset": 2112,
      "componentType": 5126,
      "count": 8,
      "max": [
        -1.5114829540252686,
        7.422586917877197,
        4.23998498916626
      ],
      "min": [
        -1.6300380229949951,
        7.31996488571167,
        4.168777942657471
      ],
      "type": "VEC3"
    },
    {
      "bufferView": 2,
      "byteOffset": 2208,
      "componentType": 5126,
      "count": 8,
      "max": [
        0.04489970579743385,
        -0.5594063997268677,
        0.8286094665527344
      ],
      "min": [
        0.02159908600151539,
        -0.5796961784362793,
        0.8135946989059448
      ],
      "type": "VEC3"
    },
    {
      "bufferView": 1,
      "byteOffset": 704,
      "componentType": 5126,
      "count": 8,
      "max": [
        0.5343679785728455,
        0.5081390142440796
      ],
      "min": [
        0.5334659814834595,
        0.5035830140113831
      ],
      "type": "VEC2"
    },
    {
      "bufferView": 0,
      "byteOffset": 1224,
      "componentType": 5125,
      "count": 12,
      "type": "SCALAR"
    },
    {
      "bufferView": 2,
      "byteOffset": 2304,
      "componentType": 5126,
      "count": 96,
      "max": [
        -1.1262069940567017,
        7.648745059967041,
        4.271615982055664
      ],
      "min": [
        -1.8351279497146606,
        6.977518081665039,
        3.9153079986572266
      ],
      "type": "VEC3"
    },
    {
      "bufferView": 2,
      "byteOffset": 3456,
      "componentType": 5126,
      "count": 96,
      "max": [
        0.781657874584198,
        0.8901188969612122,
        0.620512068271637
      ],
      "min": [
        -0.9801592230796814,
        -0.6284047365188599,
        -0.5695977210998535
      ],
      "type": "VEC3"
    },
    {
      "bufferView": 1,
      "byteOffset": 768,
      "componentType": 5126,
      "count": 96,
      "max": [
        0.8583940267562866,
        0.8101819753646851
      ],
      "min": [
        0.5221560001373291,
        0.4579310119152069
      ],
      "type": "VEC2"
    },
    {
      "bufferView": 0,
      "byteOffset": 1272,
      "componentType": 5125,
      "count": 180,
      "type": "SCALAR"
    },
    {
      "bufferView": 2,
      "byteOffset": 4608,
      "componentType": 5126,
      "count": 112,
      "max": [
        -1.4538079500198364,
        7.381947040557861,
        4.199131965637207
      ],
      "min": [
        -1.5825209617614746,
        7.2849321365356445,
        4.10646915435791
      ],
      "type": "VEC3"
    },
    {
      "bufferView": 2,
      "byteOffset": 5952,
      "componentType": 5126,
      "count": 112,
      "max": [
        0.9625213146209717,
        0.9203795194625854,
        0.9700826406478882
      ],
      "min": [
        -0.9732552170753479,
        -0.9595949649810791,
        -0.8930616974830627
      ],
      "type": "VEC3"
    },
    {
      "bufferView": 1,
      "byteOffset": 1536,
      "componentType": 5126,
      "count": 112,
      "max": [
        0.8113250136375427,
        0.49170899391174316
      ],
      "min": [
        0.7899760007858276,
        0.4715690016746521
      ],
      "type": "VEC2"
    },
    {
      "bufferView": 0,
      "byteOffset": 1992,
      "componentType": 5125,
      "count": 336,
      "type": "SCALAR"
    },
    {
      "bufferView": 2,
      "byteOffset": 7296,
      "componentType": 5126,
      "count": 16,
      "max": [
        -1.075700044631958,
        7.132099151611328,
        4.032870769500732
      ],
      "min": [
        -1.3091570138931274,
        6.941349029541016,
        3.889854907989502
      ],
      "type": "VEC3"
    },
    {
      "bufferView": 2,
      "byteOffset": 7488,
      "componentType": 5126,
      "count": 16,
      "max": [
        0.8964176177978516,
        0.16650153696537018,
        0.6305944919586182
      ],
      "min": [
        -0.1130000501871109,
        -0.971300482749939,
        -0.8452993035316467
      ],
      "type": "VEC3"
    },
    {
      "bufferView": 1,
      "byteOffset": 2432,
      "componentType": 5126,
      "count": 16,
      "max": [
        0.6594370007514954,
        0.4249359965324402
      ],
      "min": [
        0.6561769843101501,
        0.41525799036026
      ],
      "type": "VEC2"
    },
    {
      "bufferView": 0,
      "byteOffset": 3336,
      "componentType": 5125,
      "count": 24,
      "type": "SCALAR"
    },
    {
      "bufferView": 2,
      "byteOffset": 7680,
      "componentType": 5126,
      "count": 13977,
      "max": [
        -1.0540729761123657,
        7.706169128417969,
        4.3246941566467285
      ],
      "min": [
        -1.892441987991333,
        6.931783199310303,
        3.880397081375122
      ],
      "type": "VEC3"
    },
    {
      "bufferView": 2,
      "byteOffset": 175404,
      "componentType": 5126,
      "count": 13977,
      "max": [
        0.9999721050262451,
        0.9969115257263184,
        0.9898044466972351
      ],
      "min": [
        -0.9993578195571899,
        -0.9924985766410828,
        -0.9977381825447083
      ],
      "type": "VEC3"
    },
    {
      "bufferView": 1,
      "byteOffset": 2560,
      "componentType": 5126,
      "count": 13977,
      "max": [
        1.3544139862060547,
        0.9235299825668335
      ],
      "min": [
        0.11772900074720383,
        0.0025690000038594007
      ],
      "type": "VEC2"
    },
    {
      "bufferView": 0,
      "byteOffset": 3432,
      "componentType": 5125,
      "count": 29262,
      "type": "SCALAR"
    }
  ],
  "asset": {
    "extras": {
      "author": "Alana G (https://sketchfab.com/alanaguidry05)",
      "license": "CC-BY-4.0 (http://creativecommons.org/licenses/by/4.0/)",
      "source": "https://sketchfab.com/3d-models/space-ship-f1ae5b5847434f72909910c1af9592ed",
      "title": "Space Ship"
    },
    "generator": "Sketchfab-12.68.0",
    "version": "2.0"
  },
  "bufferViews": [
    {
      "buffer": 0,
      "byteLength": 120480,
      "name": "floatBufferViews",
      "target": 34963
    },
    {
      "buffer": 0,
      "byteLength": 114376,
      "byteOffset": 120480,
      "byteStride": 8,
      "name": "floatBufferViews",
      "target": 34962
    },
    {
      "buffer": 0,
      "byteLength": 343128,
      "byteOffset": 234856,
      "byteStride": 12,
      "name": "floatBufferViews",
      "target": 34962
    }
  ],
  "buffers": [
    {
      "byteLength": 577984,
      "uri": "SpaceShip.bin"
    }
  ],
  "extensionsUsed": [
    "KHR_materials_clearcoat"
  ],
  "images": [
    {
      "uri": "textures/Material.003_baseColor.png"
    },
    {
      "uri": "textures/Material.003_metallicRoughness.png"
    }
  ],
  "materials": [
    {
      "doubleSided": true,
      "emissiveFactor": [
        0.0,
        1.0,
        1.0
      ],
      "name": "Blue_Buttons",
      "pbrMetallicRoughness": {
        "baseColorFactor": [
          0.8,
          0.8,
          0.8,
          1.0
        ],
        "metallicFactor": 0.0,
        "roughnessFactor": 0.7880318375580224
      }
    },
    {
      "doubleSided": true,
      "emissiveFactor": [
        1.0,
        0.3709710925778372,
        0.0
      ],
      "name": "Blue_Buttons.001",
      "pbrMetallicRoughness": {
        "baseColorFactor": [
          0.0,
          0.0,
          0.0,
          1.0
        ],
        "metallicFactor": 0.0,
        "roughnessFactor": 0.7880318375580224
      }
    },
    {
      "doubleSided": true,
      "emissiveFactor": [
        1.0,
        1.0,
        0.0
      ],
      "name": "Engine",
      "pbrMetallicRoughness": {
        "baseColorFactor": [
          0.8,
          0.8,
          0.8,
          1.0
        ],
        "metallicFactor": 0.0,
        "roughnessFactor": 0.7880318375580224
      }
    },
    {
      "doubleSided": true,
      "name": "Glass",
      "pbrMetallicRoughness": {
        "baseColorFactor": [
          0.31356707317073174,
          0.31356707317073174,
          0.31356707317073174,
          1.0
        ],
        "metallicFactor": 0.4030014774820787,
        "roughnessFactor": 0.5969985225179213
      }
    },
    {
      "doubleSided": true,
      "emissiveFactor": [
        1.0,
        0.9760766351008715,
        0.0
      ],
      "name": "Headlights",
      "pbrMetallicRoughness": {
        "baseColorFactor": [
          0.8,
          0.8,
          0.8,
          1.0
        ],
        "metallicFactor": 0.0,
        "roughnessFactor": 0.7880318375580224
      }
    },
    {
      "doubleSided": true,
      "extensions": {
        "KHR_materials_clearcoat": {
          "clearcoatFactor": 0.13547385829548425,
          "clearcoatRoughnessFactor": 0.04
        }
      },
      "name": "Material.003",
      "pbrMetallicRoughness": {
        "baseColorTexture": {
          "index": 0
        },
        "metallicFactor": 0.09291264615216242,
        "metallicRoughnessTexture": {
          "index": 1
        }
      }
    }
  ],
  "meshes": [
    {
      "name": "Object_0",
      "primitives": [
        {
          "attributes": {
            "NORMAL": 1,
            "POSITION": 0,
            "TEXCOORD_0": 2
          },
          "indices": 3,
          "material": 0,
          "mode": 4
        }
      ]
    },
    {
      "name": "Object_1",
      "primitives": [
        {
          "attributes": {
            "NORMAL": 5,
            "POSITION": 4,
            "TEXCOORD_0": 6
          },
          "indices": 7,
          "material": 1,
          "mode": 4
        }
      ]
    },
    {
      "name": "Object_2",
      "primitives": [
        {
          "attributes": {
            "NORMAL": 9,
            "POSITION": 8,
            "TEXCOORD_0": 10
          },
          "indices": 11,
          "material": 2,
          "mode": 4
        }
      ]
    },
    {
      "name": "Object_3",
      "primitives": [
        {
          "attributes": {
            "NORMAL": 13,
            "POSITION": 12,
            "TEXCOORD_0": 14
          },
          "indices": 15,
          "material": 3,
          "mode": 4
        }
      ]
    },
    {
      "name": "Object_4",
      "primitives": [
        {
          "attributes": {
            "NORMAL": 17,
            "POSITION": 16,
            "TEXCOORD_0": 18
          },
          "indices": 19,
          "material": 4,
          "mode": 4
        }
      ]
    },
    {
      "name": "Object_5",
      "primitives": [
        {
          "attributes": {
            "NORMAL": 21,
            "POSITION": 20,
            "TEXCOORD_0": 22
          },
          "indices": 23,
          "material": 5,
          "mode": 4
        }
      ]
    }
  ],
  "nodes": [
    {
      "children": [
        1
      ],
      "matrix": [
        1.0,
        0.0,
        0.0,
        0.0,
        0.0,
        2.220446049250313e-16,
        -1.0,
        0.0,
        0.0,
        1.0,
        2.220446049250313e-16,
        0.0,
        0.0,
        0.0,
        0.0,
        1.0
      ],
      "name": "Sketchfab_model"
    },
    {
      "children": [
        2,
        3,
        4,
        5,
        6,
        7
      ],
      "name": "ship-upload.obj.cleaner.materialmerger.gles"
    },
    {
      "mesh": 0,
      "name": "Object_2"
    },
    {
      "mesh": 1,
      "name": "Object_3"
    },
    {
      "mesh": 2,
      "name": "Object_4"
    },
    {
      "mesh": 3,
      "name": "Object_5"
    },
    {
      "mesh": 4,
      "name": "Object_6"
    },
    {
      "mesh": 5,
      "name": "Object_7"
    }
  ],
  "samplers": [
    {
      "magFilter": 9729,
      "minFilter": 9987,
      "wrapS": 10497,
      "wrapT": 10497
    }
  ],
  "scene": 0,
  "scenes": [
    {
      "name": "Sketchfab_Scene",
      "nodes": [
        0
      ]
    }
  ],
  "textures": [
    {
      "sampler": 0,
      "source": 0
    },
    {
      "sampler": 0,
      "source": 1
    }
  ]
}
